<?xml version="1.0"?>
<svg xmlns="http://www.w3.org/2000/svg" id="Layer_1" data-name="Layer 1" viewBox="0 0 512 512" width="512" height="512"><title>Euro Exchange</title><path d="M447.249,197.572a6,6,0,0,0-10.035,0l-53.768,81.983a6,6,0,0,0,5.017,9.29h45.868a188.8,188.8,0,0,1-64.316,117.64c-33.182,28.453-74.867,44.771-114.365,44.771-25.76,0-52.694-6.944-77.89-20.081a193.577,193.577,0,0,1-66.346-56.909,6,6,0,1,0-9.681,7.091,205.636,205.636,0,0,0,70.479,60.458c26.9,14.027,55.754,21.441,83.438,21.441,42.32,0,86.852-17.372,122.176-47.661a200.771,200.771,0,0,0,68.606-126.75H496a6,6,0,0,0,5.017-9.29Zm-47.675,79.273L442.231,211.8l42.659,65.042Z"/><path d="M69.769,317.138a6,6,0,0,0,5.017-2.71l53.768-81.983a6,6,0,0,0-5.017-9.29H77.669a188.8,188.8,0,0,1,64.316-117.64c33.182-28.453,74.867-44.771,114.365-44.771,25.76,0,52.694,6.944,77.89,20.081a193.577,193.577,0,0,1,66.346,56.909,6,6,0,1,0,9.681-7.091,205.636,205.636,0,0,0-70.479-60.458c-26.9-14.027-55.754-21.441-83.438-21.441-42.32,0-86.852,17.372-122.176,47.661a200.771,200.771,0,0,0-68.606,126.75H16a6,6,0,0,0-5.017,9.29l53.768,81.983A6,6,0,0,0,69.769,317.138Zm42.657-81.983L69.769,300.2,27.11,235.155Z"/><path d="M140,256A116,116,0,1,0,256,140,116.132,116.132,0,0,0,140,256Zm220,0A104,104,0,1,1,256,152,104.118,104.118,0,0,1,360,256Z"/><path d="M202.568,237.308H183.644a6,6,0,0,0,0,12h16.55a66.416,66.416,0,0,0,0,13.384h-16.55a6,6,0,0,0,0,12h18.924A66.108,66.108,0,0,0,265.855,322h22.5a6,6,0,0,0,0-12h-22.5a54.088,54.088,0,0,1-50.66-35.308h57.3a6,6,0,0,0,0-12h-60.2a52.288,52.288,0,0,1,0-13.384h60.2a6,6,0,0,0,0-12H215.2A54.088,54.088,0,0,1,265.855,202h22.5a6,6,0,0,0,0-12h-22.5A66.108,66.108,0,0,0,202.568,237.308Z"/></svg>
