<?xml version="1.0" encoding="iso-8859-1"?>
<!-- Generator: Adobe Illustrator 19.0.0, SVG Export Plug-In . SVG Version: 6.00 Build 0)  -->
<svg version="1.1" id="Capa_1" xmlns="http://www.w3.org/2000/svg" xmlns:xlink="http://www.w3.org/1999/xlink" x="0px" y="0px"
	 viewBox="0 0 368 368" style="enable-background:new 0 0 368 368;" xml:space="preserve">
<g>
	<g>
		<path d="M192.008,32.2L192,8c0-4.416-3.584-8-8-8c-4.416,0-8,3.584-8,8v24.2C78.24,36.408,0,117.224,0,216c0,4.416,3.584,8,8,8
			c18.176,0,27.632-10.312,35.216-18.6c6.864-7.48,12.28-13.4,23.416-13.4c11.144,0,16.56,5.912,23.424,13.4
			c6.216,6.784,13.76,14.824,26.224,17.56c1.128,0.608,2.36,1.04,3.72,1.04c0.488,0,0.904-0.192,1.368-0.272
			c1.288,0.112,2.528,0.272,3.92,0.272c18.184,0,27.64-10.312,35.232-18.592c4.984-5.44,9.232-10.008,15.44-12.128V328
			c0,0.312,0.016,0.624,0.056,0.928C176.504,350.552,194.256,368,216,368c22.056,0,40-17.944,40-40c0-4.416-3.576-8-8-8
			s-8,3.584-8,8c0,13.232-10.768,24-24,24s-24-10.768-24-24c0-0.28-0.008-0.56-0.04-0.832V193.28
			c6.2,2.12,10.448,6.688,15.424,12.12c7.592,8.288,17.04,18.6,35.224,18.6c1.416,0,2.688-0.168,4-0.288
			c0.464,0.096,0.896,0.288,1.392,0.288c1.392,0,2.632-0.448,3.776-1.072c12.376-2.768,19.888-10.768,26.08-17.512
			C284.72,197.92,290.152,192,301.312,192c11.16,0,16.576,5.92,23.448,13.408C332.36,213.696,341.816,224,360,224
			c4.424,0,8-3.584,8-8C368,117.232,289.768,36.416,192.008,32.2z M112.144,204.208c-3.68-2.416-6.8-5.8-10.288-9.608
			c-7.592-8.288-17.04-18.6-35.224-18.6c-18.184,0-27.624,10.312-35.216,18.592c-4.92,5.368-9.096,9.928-15.168,12.08
			C20.656,126.448,81.664,61.24,159.88,49.92C140.552,71.304,114.312,116.32,112.144,204.208z M219.176,194.6
			c-7.592-8.288-17.032-18.6-35.216-18.6s-27.64,10.312-35.24,18.592c-6.224,6.8-11.32,12.248-20.528,13.208
			C130.208,97.744,171.44,58.776,184,49.52c12.616,9.304,53.8,48.296,55.808,158.288C230.536,206.88,225.424,201.416,219.176,194.6z
			 M336.552,194.6c-7.6-8.288-17.048-18.6-35.24-18.6c-18.2,0-27.656,10.312-35.256,18.592c-3.456,3.776-6.56,7.144-10.2,9.56
			C253.68,116.304,227.448,71.304,208.12,49.92c78.208,11.32,139.216,76.536,143.624,156.752
			C345.664,204.528,341.48,199.968,336.552,194.6z"/>
	</g>
</g>
<g>
</g>
<g>
</g>
<g>
</g>
<g>
</g>
<g>
</g>
<g>
</g>
<g>
</g>
<g>
</g>
<g>
</g>
<g>
</g>
<g>
</g>
<g>
</g>
<g>
</g>
<g>
</g>
<g>
</g>
</svg>
