<?xml version="1.0" encoding="iso-8859-1"?>
<!-- Generator: Adobe Illustrator 19.0.0, SVG Export Plug-In . SVG Version: 6.00 Build 0)  -->
<svg version="1.1" id="Capa_1" xmlns="http://www.w3.org/2000/svg" xmlns:xlink="http://www.w3.org/1999/xlink" x="0px" y="0px"
	 viewBox="0 0 368 368" style="enable-background:new 0 0 368 368;" xml:space="preserve">
<g>
	<g>
		<path d="M312,32H8c-4.424,0-8,3.584-8,8s3.576,8,8,8h304c4.424,0,8-3.584,8-8S316.424,32,312,32z"/>
	</g>
</g>
<g>
	<g>
		<path d="M360,80H88c-4.424,0-8,3.584-8,8s3.576,8,8,8h272c4.424,0,8-3.584,8-8S364.424,80,360,80z"/>
	</g>
</g>
<g>
	<g>
		<path d="M312,176H120c-4.424,0-8,3.584-8,8s3.576,8,8,8h192c4.424,0,8-3.584,8-8C320,179.584,316.424,176,312,176z"/>
	</g>
</g>
<g>
	<g>
		<path d="M280,224H152c-4.424,0-8,3.584-8,8c0,4.416,3.576,8,8,8h128c4.424,0,8-3.584,8-8C288,227.584,284.424,224,280,224z"/>
	</g>
</g>
<g>
	<g>
		<path d="M248,272h-96c-4.424,0-8,3.584-8,8c0,4.416,3.576,8,8,8h96c4.424,0,8-3.584,8-8C256,275.584,252.424,272,248,272z"/>
	</g>
</g>
<g>
	<g>
		<path d="M216,320h-64c-4.424,0-8,3.584-8,8c0,4.416,3.576,8,8,8h64c4.424,0,8-3.584,8-8C224,323.584,220.424,320,216,320z"/>
	</g>
</g>
<g>
	<g>
		<path d="M248,128H8c-4.424,0-8,3.584-8,8s3.576,8,8,8h240c4.424,0,8-3.584,8-8S252.424,128,248,128z"/>
	</g>
</g>
<g>
</g>
<g>
</g>
<g>
</g>
<g>
</g>
<g>
</g>
<g>
</g>
<g>
</g>
<g>
</g>
<g>
</g>
<g>
</g>
<g>
</g>
<g>
</g>
<g>
</g>
<g>
</g>
<g>
</g>
</svg>
