<?xml version="1.0" encoding="iso-8859-1"?>
<!-- Generator: Adobe Illustrator 19.0.0, SVG Export Plug-In . SVG Version: 6.00 Build 0)  -->
<svg version="1.1" id="Capa_1" xmlns="http://www.w3.org/2000/svg" xmlns:xlink="http://www.w3.org/1999/xlink" x="0px" y="0px"
	 viewBox="0 0 368 368" style="enable-background:new 0 0 368 368;" xml:space="preserve">
<g>
	<g>
		<path d="M301.64,112.216C290.464,56.904,241.048,16,184,16c-57.056,0-106.464,40.904-117.64,96.216
			C29.288,115.104,0,146.192,0,184c0,39.696,32.304,72,72,72h176c4.424,0,8-3.584,8-8c0-4.416-3.576-8-8-8H72
			c-30.88,0-56-25.12-56-56s25.12-56,55.6-56.072c2.144,0.432,4.376-0.064,6.168-1.336c1.784-1.272,2.968-3.216,3.28-5.384
			C88.304,70.352,132.568,32,184,32s95.696,38.352,102.96,89.208c0.312,2.168,1.288,4.16,3.08,5.424
			c1.784,1.272,3.808,1.8,5.96,1.368c30.872,0,56,25.12,56,56c0,4.416,3.576,8,8,8s8-3.584,8-8
			C368,146.2,338.72,115.112,301.64,112.216z"/>
	</g>
</g>
<g>
	<g>
		<path d="M312,192H120c-4.416,0-8,3.584-8,8c0,4.416,3.584,8,8,8h192c4.424,0,8-3.584,8-8C320,195.584,316.424,192,312,192z"/>
	</g>
</g>
<g>
	<g>
		<path d="M360,240h-64c-4.424,0-8,3.584-8,8c0,4.416,3.576,8,8,8h64c4.424,0,8-3.584,8-8C368,243.584,364.424,240,360,240z"/>
	</g>
</g>
<g>
	<g>
		<path d="M360,288H120c-4.416,0-8,3.584-8,8c0,4.416,3.584,8,8,8h240c4.424,0,8-3.584,8-8C368,291.584,364.424,288,360,288z"/>
	</g>
</g>
<g>
	<g>
		<path d="M312,336H24c-4.416,0-8,3.584-8,8c0,4.416,3.584,8,8,8h288c4.424,0,8-3.584,8-8C320,339.584,316.424,336,312,336z"/>
	</g>
</g>
<g>
	<g>
		<path d="M72,288H8c-4.416,0-8,3.584-8,8c0,4.416,3.584,8,8,8h64c4.416,0,8-3.584,8-8C80,291.584,76.416,288,72,288z"/>
	</g>
</g>
<g>
</g>
<g>
</g>
<g>
</g>
<g>
</g>
<g>
</g>
<g>
</g>
<g>
</g>
<g>
</g>
<g>
</g>
<g>
</g>
<g>
</g>
<g>
</g>
<g>
</g>
<g>
</g>
<g>
</g>
</svg>
