<?xml version="1.0" encoding="iso-8859-1"?>
<!-- Generator: Adobe Illustrator 19.0.0, SVG Export Plug-In . SVG Version: 6.00 Build 0)  -->
<svg version="1.1" id="Capa_1" xmlns="http://www.w3.org/2000/svg" xmlns:xlink="http://www.w3.org/1999/xlink" x="0px" y="0px"
	 viewBox="0 0 368 368" style="enable-background:new 0 0 368 368;" xml:space="preserve">
<g>
	<g>
		<path d="M301.536,128.28C290.36,72.96,241.056,32,184,32c-57.064,0-106.36,40.96-117.528,96.28C29.352,131.12,0,162.168,0,200
			c0,39.696,32.296,72,72,72h16c4.424,0,8-3.584,8-8c0-4.416-3.576-8-8-8H72c-30.872,0-56-25.12-56-56s25.128-56,55.616-56.064
			c0.088,0.016,0.184,0.008,0.272,0.024c0.04,0.008,0.064,0.032,0.104,0.04c0.376,0.056,0.744,0.08,1.112,0.08
			c0.008,0,0.016,0,0.024,0c4.168,0,8.456,0.544,12.752,1.624c0.312,0.136,0.64,0.248,0.976,0.336
			c14.088,3.848,26.352,13.312,33.656,25.96c2.208,3.824,7.104,5.136,10.928,2.928c3.832-2.208,5.144-7.104,2.928-10.928
			c-9.2-15.936-24.52-27.936-42.168-33.08c-0.368-0.168-0.752-0.304-1.152-0.408c-2.8-0.752-5.6-1.32-8.4-1.72
			C93.328,82.184,135.448,48,184,48c48.544,0,90.672,34.184,101.352,80.792c-2.8,0.408-5.608,0.968-8.4,1.728
			c-0.392,0.104-0.768,0.24-1.136,0.4c-17.64,5.136-32.968,17.144-42.184,33.08c-2.208,3.832-0.896,8.72,2.928,10.928
			c3.816,2.208,8.712,0.896,10.928-2.92c7.312-12.656,19.576-22.12,33.656-25.968c0.328-0.096,0.656-0.2,0.968-0.336
			c4.296-1.08,8.584-1.624,12.768-1.624c0.512,0.008,0.616,0.024,1.12-0.08c30.872,0,56,25.12,56,56s-25.128,56-56,56h-16
			c-4.424,0-8,3.584-8,8c0,4.416,3.576,8,8,8h16c39.704,0,72-32.304,72-72C368,162.168,338.656,131.128,301.536,128.28z"/>
	</g>
</g>
<g>
	<g>
		<path d="M238.4,243.2l-48-64c-0.096-0.128-0.256-0.16-0.352-0.28c-1.472-1.744-3.584-2.92-6.048-2.92s-4.576,1.176-6.048,2.92
			c-0.104,0.12-0.256,0.152-0.352,0.28l-48,64c-2.656,3.536-1.936,8.552,1.6,11.2c3.528,2.664,8.544,1.944,11.192-1.6L176,208v120
			c0,4.416,3.576,8,8,8s8-3.584,8-8V208l33.6,44.8c1.568,2.096,3.968,3.2,6.408,3.2c1.672,0,3.352-0.52,4.792-1.6
			C240.336,251.752,241.056,246.736,238.4,243.2z"/>
	</g>
</g>
<g>
</g>
<g>
</g>
<g>
</g>
<g>
</g>
<g>
</g>
<g>
</g>
<g>
</g>
<g>
</g>
<g>
</g>
<g>
</g>
<g>
</g>
<g>
</g>
<g>
</g>
<g>
</g>
<g>
</g>
</svg>
